<?xml version="1.0" encoding="utf-8"?>
<svg viewBox="0 0 500 500" xmlns="http://www.w3.org/2000/svg">
  <path stroke-width="0" d="M 408.436 90.387 L 413.641 126.936 C 413.641 126.936 327.557 139.046 283.862 142.505 C 226.815 147.02 169.487 147.758 112.262 147.581 C 95.236 147.528 60.58 147.023 60.58 147.023 L 60.747 108.328 C 60.747 108.328 125.124 110.304 158.286 110.048 C 209.539 109.653 260.857 107.822 311.89 103.06 C 343.402 100.12 408.436 90.387 408.436 90.387 Z" style="stroke-width: 2px; stroke: rgb(0, 0, 0);"/>
  <path stroke-width="0" d="M 187.87 36.939 L 225.722 41.188 C 225.722 41.188 220.565 77.252 218.697 95.366 C 217.555 106.438 216.655 117.555 216.141 128.66 C 215.063 151.945 213.748 175.238 213.701 198.548 C 213.663 217.023 214.583 235.491 215.41 253.948 C 216.213 271.858 217.404 289.828 219.663 307.638 C 221.543 322.467 224.359 337.173 227.392 351.809 C 230.627 367.42 234.148 382.994 238.548 398.318 C 243.298 414.861 254.976 447.269 254.976 447.269 L 218.91 463.061 C 218.91 463.061 206.478 427.795 201.578 409.769 C 195.994 389.225 193.463 376.778 190.405 360.078 C 186.934 341.122 184.599 327.865 182.279 302.838 C 179.815 276.261 178.857 268.54 178.175 251.33 C 176.862 218.209 176.682 198.149 176.93 171.555 C 177.102 153.123 177.647 134.684 178.824 116.289 C 179.702 102.565 181.12 89.895 182.677 75.214 C 184.041 62.347 187.87 36.939 187.87 36.939 Z" style="stroke-width: 2px; stroke: rgb(0, 0, 0);"/>
  <path stroke-width="0" d="M 331.878 163.708 L 370.237 174.377 L 362.62 206.768 C 362.62 206.768 368.861 208.305 376.083 211.488 C 380.538 213.451 385.759 216.826 388.947 218.505 C 395.084 221.737 402.491 226.558 408.228 231.873 C 413.911 237.138 417.739 242.968 422.888 249.906 C 425.202 253.024 431.829 263.415 434.94 270.842 C 437.992 278.129 440.061 285.874 441.284 293.679 C 442.103 298.906 442.943 305.484 443.052 311.429 C 443.164 317.532 442.855 323.05 441.905 329.705 C 440.772 337.642 438.272 345.4 435.19 352.802 C 432.437 359.412 428.454 365.448 424.773 371.588 C 420.572 378.595 415.524 385.148 409.882 391.057 C 401.487 399.85 391.881 407.493 381.968 414.53 C 370.139 422.927 357.614 430.45 344.539 436.734 C 332.114 442.705 305.842 451.325 305.842 451.325 L 290.299 421.191 C 290.299 421.191 313.801 412.222 325.11 406.754 C 334.488 402.219 343.748 397.335 352.42 391.563 C 358.021 387.835 363.796 384.167 369.155 380.049 C 373.353 376.824 380.016 370.932 384.506 365.496 C 389.604 359.324 393.464 354.503 398.074 345.895 C 401.437 339.615 403.7 332.324 405.268 325.375 C 406.622 319.374 407.061 313.093 406.536 306.964 C 405.816 298.554 403.51 289.804 400.526 282.364 C 398.379 277.012 394.598 271.229 390.576 266.01 C 385.442 259.349 379.915 253.608 376.893 250.857 C 371.384 245.842 362.337 239.396 352.153 236.268 C 349.565 235.473 354.69 235.633 354.69 235.633 C 354.69 235.633 348.657 254.137 344.856 263.863 C 337.351 283.065 328.886 302.686 318.212 320.324 C 308.381 336.57 297.726 352.494 285.106 366.683 C 277.646 375.07 269.846 383.269 261.579 390.931 C 253.295 398.607 244.742 406.041 235.19 411.993 C 218.792 422.212 200.846 429.905 182.771 436.734 C 165.68 443.191 148.278 449.962 130.117 451.959 C 116.638 453.441 102.329 453.857 89.515 449.421 C 80.896 446.437 72.758 440.948 66.995 433.879 C 62.205 428.003 59.625 420.372 58.114 412.943 C 56.302 404.033 56.775 394.659 58.113 385.666 C 59.609 375.609 62.696 366.081 66.995 356.484 C 70.556 348.535 79.583 331.843 87.612 320.64 C 95.816 309.192 105.508 298.821 115.525 288.921 C 128.217 276.377 139.877 264.869 156.126 254.03 C 178.613 239.03 188.748 232.561 213.857 221.041 C 223.941 216.414 239.532 210.702 247.553 208.567 C 256.016 206.315 263.244 203.776 278.464 201.377 C 290.648 200.153 301.056 199.278 321.839 200.359 C 336.092 198.105 322.653 200.741 322.653 200.741 L 331.878 163.708 Z M 316.309 232.46 C 316.309 232.46 317.49 226.939 316.584 232.867 C 294.227 229.877 270.156 235.721 248.284 242.867 C 224.699 250.573 220.999 253.661 208.164 260.689 C 198.64 265.904 181.48 278.318 180.985 278.647 C 170.032 285.929 162.545 292.161 154.074 299.806 C 142.136 310.579 131.084 321.262 121.804 333.845 C 112.89 345.932 103.427 358.967 99.724 373.121 C 98.256 378.732 96.875 383.781 96.607 389.622 C 96.373 394.717 96.961 401.345 99.129 406.073 C 100.942 410.027 104.869 412.972 108.855 414.638 C 113.088 416.408 119.246 416.415 123.221 416.234 C 128.627 415.988 131.743 415.079 136.51 413.88 C 140.733 412.817 145.399 411.1 149.493 409.614 C 156.457 407.087 165.233 404.418 172.803 401.076 C 189.416 393.742 205.631 386.924 221.116 375.899 C 234.537 366.344 246.04 354.155 256.677 341.575 C 265.614 331.005 273.794 318.733 281.418 306.686 C 288.81 295.005 295.846 283.038 301.719 270.524 C 307.492 258.223 316.309 232.46 316.309 232.46 Z" style="stroke-width: 2px; stroke: rgb(0, 0, 0);"/>
</svg>