<?xml version="1.0" encoding="utf-8"?>
<svg viewBox="0 0 500 500" xmlns="http://www.w3.org/2000/svg">
  <path stroke-width="0" d="M 38.639 25.778 C 40.337 24.112 66.378 23.665 68.158 25.594 C 69.774 27.346 73.786 470.815 72.409 476.371 C 71.451 480.234 46.064 477.201 43.479 476.394 C 40.739 475.537 36.767 27.613 38.639 25.778 Z" style="stroke-width: 2px; stroke: rgb(0, 0, 0);"/>
  <path stroke-width="0" d="M 65.542 26.753 C 68.743 24.344 432.316 16.384 444.344 20.578 C 455.026 24.302 459.958 40.919 461.587 53.135 C 463.36 66.431 461.276 93.207 461.173 113.244 C 460.784 189.326 460.139 252.938 460.409 341.491 C 460.559 390.677 457.022 444.926 456.146 455.405 C 455.698 460.754 455.67 462.605 454.538 465.428 C 453.51 467.988 451.783 470.189 449.981 471.831 C 448.271 473.388 446.304 474.595 444.084 475.172 C 441.698 475.791 438.562 475.932 436.042 475.172 C 433.461 474.392 430.573 472.368 428.806 470.439 C 427.201 468.687 426.145 466.62 425.589 464.314 C 424.992 461.836 425.439 460.737 425.589 455.962 C 425.922 445.361 428.647 385.081 428.806 349.615 C 429.259 248.719 426.038 58.783 422.041 56.733 C 407.652 49.351 83.45 57.877 70.186 55.407 C 65.112 54.463 62.993 28.672 65.542 26.753 Z" style="stroke-width: 2px; stroke: rgb(0, 0, 0);"/>
  <path stroke-width="0" d="M 404.522 132.654 C 415.248 133.877 408.777 160.686 405.17 161.46 C 398.372 162.918 334.977 162.455 306.781 163.017 C 239.083 164.366 201.839 166.914 149.347 166.909 C 128.497 166.907 108.486 169.386 99.615 166.946 C 93.79 165.344 87.561 138.596 94.361 138.122 C 107.925 137.176 167.487 139.982 208.2 139.661 C 275.181 139.134 372.307 128.982 404.522 132.654 Z" style="stroke-width: 2px; stroke: rgb(0, 0, 0);"/>
  <path stroke-width="0" d="M 98.062 203.27 C 99.072 196.916 116.422 192.005 119.861 195.484 C 123.259 198.92 121.657 233.908 122.975 253.095 C 124.26 271.801 130.407 293.313 127.646 309.15 C 126.41 316.242 108.261 311.142 108.184 308.372 C 108.14 306.817 95.674 218.302 98.062 203.27 Z" style="stroke-width: 2px; stroke: rgb(0, 0, 0);"/>
  <path stroke-width="0" d="M 119.182 196.213 C 121.208 194.375 134.147 194.48 143.167 194.656 C 158.478 194.956 205.699 189.727 218.775 193.043 C 225.589 194.772 231.44 203.276 234.717 208.225 C 240.109 216.368 230.752 257.328 230.752 257.328 C 230.752 257.328 226.279 297.112 223.744 308.711 C 222.486 314.467 205.816 315.349 205.06 311.047 C 203.339 301.254 214.492 223.051 206.708 217.197 C 195.692 208.912 128.07 221.757 122.801 220.501 C 117.917 219.337 116.812 198.363 119.182 196.213 Z" style="stroke-width: 2px; stroke: rgb(0, 0, 0);"/>
  <path stroke-width="0" d="M 205.111 290.821 C 217.135 290.532 218.501 292.285 224.574 293.936 C 229.007 295.141 229.699 305.54 226.909 310.285 C 224.865 313.761 219.627 314.246 215.611 314.612 C 209.174 315.199 203.95 310.99 196.546 311.064 C 168.702 311.342 128.585 319.891 113.243 317.292 C 106.836 316.206 104.977 299.775 110.908 298.607 C 125.349 295.763 184.694 291.314 205.111 290.821 Z" style="stroke-width: 2px; stroke: rgb(0, 0, 0);"/>
  <path stroke-width="0" d="M 258.8 328.304 C 266.092 327.286 264.944 334.237 256.69 337.363 C 245.43 341.627 239.515 343.423 223.082 350.598 C 211.166 355.801 199.179 360.837 187.249 366.007 C 177.162 370.378 164.143 376.585 157.026 379.205 C 151.634 381.19 148.225 382.588 143.483 384.638 C 138.127 386.954 135.447 387.674 131.428 389.191 C 126.925 390.89 122.073 392.984 118.325 393.879 C 114.533 394.785 108.656 396.693 105.446 394.473 C 101.77 391.932 100.042 389.628 99.306 384.522 C 98.606 379.666 98.648 371.753 101.898 370.033 C 121.006 359.918 170.468 348.453 206.987 338.702 C 229.339 332.734 240.327 330.883 258.8 328.304 Z" style="stroke-width: 2px; stroke: rgb(0, 0, 0);"/>
  <path stroke-width="0" d="M 220.132 71.472 C 221.092 66.83 245.988 63.301 247.945 65.783 C 249.773 68.103 251.411 87.674 253.634 99.285 C 257.216 117.992 265.898 162.798 275.126 193.741 C 284.285 224.453 297.019 264.207 314.206 296.612 C 327.034 320.798 338.332 346.108 355.832 367.011 C 363.801 376.529 371.778 389.635 376.092 387.767 C 380.234 385.973 413.261 359.095 416.648 356.733 C 419.947 354.433 411.937 391.759 402.994 406.426 C 398.157 414.359 391.644 423.762 382.481 425.3 C 375.423 426.485 355.972 412.586 354.776 411.45 C 345.889 403.007 337.538 394.457 330.231 384.065 C 315.586 363.235 303.044 340.886 291.891 317.996 C 274.172 281.628 257.994 243.994 246.769 205.33 C 234.085 161.64 218.629 78.745 220.132 71.472 Z" style="stroke-width: 2px; stroke: rgb(0, 0, 0);"/>
  <path stroke-width="0" d="M 347.087 227.381 C 347.087 227.381 359.071 225.251 368.519 231.843 C 375.875 236.974 378.063 245.993 378.213 252.37 C 378.627 269.94 371.079 281.464 362.369 296.729 C 352.933 313.265 339.511 330.141 326.305 344.565 C 312.907 359.199 298.29 372.988 281.996 384.31 C 267.67 394.264 251.931 402.351 235.657 408.633 C 225.072 412.719 203.719 418.688 202.707 417.167 C 201.623 415.539 236.113 396.324 250.582 383.133 C 261.72 372.979 272.747 361.536 282.722 349.738 C 297.303 332.492 312.015 314.998 323.047 295.292 C 336.213 271.774 347.087 227.381 347.087 227.381 Z" style="stroke-width: 2px; stroke: rgb(0, 0, 0);"/>
  <path stroke-width="0" d="M 321.02 80.092 C 329.207 76.947 379.13 86.886 387.8 94.986 C 392.2 99.097 392.815 105.083 388.654 110.938 C 382.361 119.793 328.958 112.954 321.778 109.169 C 313.619 104.868 311.574 83.72 321.02 80.092 Z" style="stroke-width: 2px; stroke: rgb(0, 0, 0);"/>
  <path stroke-width="0" d="M 245.301 440.648 C 288.224 439.645 225.147 441.138 357.225 440.532 C 385.747 440.401 456.802 437.926 457.825 438.726 C 459.942 440.378 464.762 468.154 455.591 477.659 C 448.409 485.106 399.111 477.503 368.515 475.259 C 309.367 470.923 250.05 474.484 190.803 474.616 C 151.226 474.703 78.804 481.075 67.061 477.819 C 62.09 476.44 63.732 446.622 66.405 443.691 C 69.513 440.283 187.296 442.005 245.301 440.648 Z" style="stroke-width: 2px; stroke: rgb(0, 0, 0);"/>
</svg>