<?xml version="1.0" encoding="utf-8"?>
<svg viewBox="0 0 500 500" xmlns="http://www.w3.org/2000/svg">
  <path style="stroke-width: 1px; stroke: rgb(0, 0, 0); fill: none;" d="M 71.711 128.394 C 71.711 128.394 90.667 129.955 99.826 130.386 C 126.862 131.658 153.973 130.859 181.023 129.93 C 226.855 128.356 318.327 121.263 318.327 121.263 L 378.976 114.454 L 407.551 111.181"/>
  <path style="stroke: rgb(0, 0, 0); stroke-width: 1px; fill: none;" d="M 205.155 49.985 C 205.155 49.985 194.148 145.626 194.18 193.656 C 194.209 236.561 195.709 284.982 202.464 330.015 C 208.569 370.711 231.464 450.015 231.464 450.015"/>
  <path style="stroke: rgb(0, 0, 0); stroke-width: 1px; fill: none;" d="M 348.542 186.93 C 348.542 186.93 337.222 229.321 329.228 249.701 C 321.492 269.423 312.657 288.861 301.636 306.954 C 287.114 330.793 271.138 353.902 250.536 372.375 C 229.614 391.135 204.613 405.629 178.852 416.743 C 169.481 420.785 156.806 425.75 145.362 428.941 C 138.275 430.917 131.052 432.791 123.706 433.21 C 115.983 433.65 107.798 434.105 100.574 431.339 C 91.974 428.046 83.833 423.876 78.591 414.606 C 74.233 406.9 74.517 397.725 75.346 388.911 C 75.969 382.283 79.144 375.695 80.901 369.726 C 85.726 353.337 95.728 338.738 105.733 324.889 C 115.262 311.699 127.12 300.303 138.844 289.02 C 150.83 277.485 163.731 268.078 177.528 259.579 C 197.147 247.493 217.843 236.683 239.665 229.283 C 258.587 222.866 275.908 217.906 294.683 216.615 C 312.131 215.416 330.285 217.792 346.942 221.281 C 362.241 224.486 378.778 229.575 391.647 239.167 C 401.592 246.58 408.778 257.984 414.763 269.071 C 418.45 275.902 420.982 283.209 422.351 291.089 C 424.122 301.286 424.43 311.874 423.041 322.13 C 421.43 334.024 418.748 346.255 412.694 356.62 C 408.511 363.782 403.075 370.126 397.092 375.869 C 389.336 383.313 379.943 389.537 371.306 395.938 C 358.949 405.095 345.927 413.583 331.987 420.081 C 325.397 423.153 311.293 426.979 311.293 426.979"/>
</svg>