<?xml version="1.0" encoding="utf-8"?>
<svg viewBox="0 0 500 500" xmlns="http://www.w3.org/2000/svg">
  <path style="fill: none; stroke: rgb(0, 0, 0);" d="M 54.151 41.824 L 58.819 461.429"/>
  <path style="fill: none; stroke: rgb(0, 0, 0);" d="M 74.379 41.824 C 74.379 41.824 429.319 37.672 434.337 40.268 C 446.888 46.76 444.664 50.614 445.748 61.015 C 446.398 67.254 443.673 460.912 443.673 460.912"/>
  <path style="fill: none; stroke: rgb(0, 0, 0);" d="M 106.504 152.186 C 106.504 152.186 175.134 152.381 209.448 152.186 C 239.796 152.013 270.149 151.905 300.488 151.149 C 331.967 150.364 394.886 147.518 394.886 147.518"/>
  <path style="fill: none; stroke: rgb(0, 0, 0);" d="M 109.616 208.721 L 119.471 305.713"/>
  <path style="fill: none; stroke: rgb(0, 0, 0);" d="M 126.214 208.203 C 126.182 208.458 207.963 203.192 211.276 204.053 C 219.457 206.18 223.326 209.4 224.762 216.502 C 225.157 218.455 215.426 304.676 215.426 304.676"/>
  <path style="fill: none; stroke: rgb(0, 0, 0);" d="M 122.583 311.418 L 210.757 303.12"/>
  <path style="fill: none; stroke: rgb(0, 0, 0);" d="M 110.135 382.476 L 249.658 335.277"/>
  <path style="fill: none; stroke: rgb(0, 0, 0);" d="M 235.135 78.534 C 235.135 78.534 248.951 156.238 259.513 194.198 C 266.138 218.008 274.085 241.533 283.89 264.219 C 296.346 293.039 309.767 321.788 327.459 347.725 C 342.444 369.693 373.482 403.469 379.845 407.891 C 397.208 417.172 405.26 379.883 405.26 379.883"/>
  <path style="fill: none; stroke: rgb(0, 0, 0);" d="M 360.654 246.066 C 360.654 246.066 353.405 269.777 348.725 281.335 C 341.224 299.86 332.694 316.055 325.646 326.697 C 313.287 345.359 306.252 353 289.596 367.954 C 271.431 384.263 227.874 407.373 227.874 407.373"/>
  <path style="fill: none; stroke: rgb(0, 0, 0);" d="M 326.421 95.651 L 381.401 103.949"/>
  <path style="fill: none; stroke: rgb(0, 0, 0);" d="M 76.94 460.277 L 443.641 461.833"/>
</svg>