<svg xmlns="http://www.w3.org/2000/svg" xmlns:xlink="http://www.w3.org/1999/xlink" viewBox="0 0 100 100">
  <path d="M0,0L100,0L100,100L0,100ZL10.774,64.646L11.7,66.162L12.71,67.761L13.552,68.771L15.236,70.707L17.003,72.643L19.276,74.916L21.044,76.599L22.054,77.525L23.822,79.293L27.273,82.323L32.323,79.63L34.512,77.357L35.606,76.01L37.795,72.475L40.067,68.771L41.162,67.003L43.939,63.047L46.044,59.512L47.138,57.744L49.747,53.199L52.778,47.559L54.377,45.118L57.66,39.226L61.279,32.239L62.879,29.293L65.909,24.495L69.192,20.455L70.455,18.855L71.886,17.088L73.653,14.815L76.936,10.269L79.125,7.323"/>
</svg>
